<svg width="22" height="22" viewBox="0 0 22 22" fill="none" xmlns="http://www.w3.org/2000/svg">
<path d="M11 0C17.0751 0 22 4.92486 22 11C22 17.0751 17.0751 22 11 22C4.92487 22 0 17.0751 0 11C0 4.92486 4.92487 0 11 0ZM11.0792 5.0354C9.59374 5.04247 8.23594 5.98976 7.65917 7.31141C7.46187 7.77174 7.35706 8.24463 7.35706 8.75758V10.0655H5.55506V16.9646H16.4449V10.0654H14.788C14.803 9.14131 14.822 8.08414 14.4979 7.31137C13.8678 5.9197 12.5647 5.02832 11.0792 5.0354ZM11.1598 7.23217C11.9826 7.24948 12.5253 7.87517 12.6046 8.75754V10.0654H9.54041V8.74414C9.5782 7.90739 10.2115 7.25521 11.0793 7.23217C11.1061 7.23154 11.133 7.23154 11.1598 7.23217Z" fill="white"/>
</svg>
